<svg width="256" height="256" viewBox="0 0 256 256" fill="none" xmlns="http://www.w3.org/2000/svg">
    <rect width="256" height="256" rx="60" fill="#F4F2ED" />
    <path
        d="M123.03 108.25C124.435 106.196 125.965 105.937 127.208 105.937C128.45 105.937 130.514 106.196 131.919 108.25C142.938 123.303 161.13 153.297 174.552 175.43C183.308 189.853 190.03 200.938 191.413 202.347C196.59 207.641 203.689 204.341 207.816 198.335C211.876 192.426 213 188.273 213 183.846C213 180.828 154.149 71.976 148.225 62.9149C142.531 54.2023 140.667 52 130.92 52H123.614C113.889 52 112.484 54.2023 106.782 62.9149C100.859 71.976 42 180.828 42 183.839C42 188.273 43.1315 192.426 47.1989 198.335C51.3254 204.341 58.4248 207.641 63.6015 202.339C64.977 200.931 71.6993 189.853 80.4552 175.423C93.8776 153.296 112.011 123.303 123.037 108.243L123.03 108.25Z"
        fill="black" />
</svg>